<?xml version="1.0" encoding="UTF-8" standalone="no"?>
<!DOCTYPE svg PUBLIC "-//W3C//DTD SVG 1.1//EN"
 "http://www.w3.org/Graphics/SVG/1.1/DTD/svg11.dtd">
<!-- Generated by graphviz version 14.0.2 (0)
 -->
<!-- Title: MOLE MATLAB Functions Pages: 1 -->
<svg width="814pt" height="907pt"
 viewBox="0.00 0.00 814.00 907.00" xmlns="http://www.w3.org/2000/svg" xmlns:xlink="http://www.w3.org/1999/xlink">
<g id="graph0" class="graph" transform="scale(1 1) rotate(0) translate(4 903.22)">
<title>MOLE MATLAB Functions</title>
<polygon fill="white" stroke="none" points="-4,4 -4,-903.22 809.95,-903.22 809.95,4 -4,4"/>
<g id="clust1" class="cluster">
<title>cluster_operators</title>
<polygon fill="#f5f5f5" stroke="#f5f5f5" points="245.45,-98.22 245.45,-351.22 523.35,-351.22 523.35,-98.22 245.45,-98.22"/>
<text xml:space="preserve" text-anchor="middle" x="384.4" y="-333.92" font-family="Arial" font-size="14.00">Core Operators</text>
</g>
<g id="clust2" class="cluster">
<title>cluster_diff_ops</title>
</g>
<g id="clust3" class="cluster">
<title>cluster_variants</title>
<polygon fill="#f5f5f5" stroke="#f5f5f5" points="679.85,-166.22 679.85,-295.22 802.35,-295.22 802.35,-166.22 679.85,-166.22"/>
<text xml:space="preserve" text-anchor="middle" x="741.1" y="-277.92" font-family="Arial" font-size="14.00">Operator Variants</text>
</g>
<g id="clust4" class="cluster">
<title>cluster_dimensions</title>
<polygon fill="#f5f5f5" stroke="#f5f5f5" points="542.35,-112.22 542.35,-310.22 658.85,-310.22 658.85,-112.22 542.35,-112.22"/>
<text xml:space="preserve" text-anchor="middle" x="600.6" y="-292.92" font-family="Arial" font-size="14.00">Dimensional</text>
<text xml:space="preserve" text-anchor="middle" x="600.6" y="-277.92" font-family="Arial" font-size="14.00">Implementations</text>
</g>
<g id="clust5" class="cluster">
<title>cluster_support</title>
<polygon fill="#f5f5f5" stroke="#f5f5f5" points="13.62,-359.22 13.62,-596.22 354.9,-596.22 354.9,-359.22 13.62,-359.22"/>
<text xml:space="preserve" text-anchor="middle" x="184.26" y="-578.92" font-family="Arial" font-size="14.00">Supporting Components</text>
</g>
<g id="clust14" class="cluster">
<title>cluster_legend</title>
<polygon fill="#f5f5f5" stroke="#f5f5f5" points="8,-604.22 8,-891.22 386.4,-891.22 386.4,-604.22 8,-604.22"/>
<text xml:space="preserve" text-anchor="middle" x="197.2" y="-877.72" font-family="Arial" font-size="10.00">Legend</text>
</g>
<!-- DifferentialOperators -->
<g id="node1" class="node">
<title>DifferentialOperators</title>
<polygon fill="#d5e8d4" stroke="black" points="343.15,-320.22 253.45,-320.22 253.45,-284.22 343.15,-284.22 343.15,-320.22"/>
<text xml:space="preserve" text-anchor="middle" x="298.3" y="-303.22" font-family="Arial" font-size="10.00">Differential</text>
<text xml:space="preserve" text-anchor="middle" x="298.3" y="-292.72" font-family="Arial" font-size="10.00">Operators</text>
</g>
<!-- Grad -->
<g id="node2" class="node">
<title>Grad</title>
<polygon fill="#d5e8d4" stroke="black" points="501.35,-258.22 421.4,-258.22 421.4,-222.22 501.35,-222.22 501.35,-258.22"/>
<text xml:space="preserve" text-anchor="middle" x="461.38" y="-235.97" font-family="Arial" font-size="10.00">Gradient</text>
</g>
<!-- DifferentialOperators&#45;&gt;Grad -->
<g id="edge1" class="edge">
<title>DifferentialOperators&#45;&gt;Grad</title>
<path fill="none" stroke="#0000aa" stroke-dasharray="1,5" d="M343.31,-285.28C364.11,-277.27 389.03,-267.68 410.52,-259.41"/>
<polygon fill="#0000aa" stroke="#0000aa" points="411.6,-262.75 419.68,-255.89 409.09,-256.21 411.6,-262.75"/>
</g>
<!-- Div -->
<g id="node3" class="node">
<title>Div</title>
<polygon fill="#d5e8d4" stroke="black" points="507.35,-204.22 415.4,-204.22 415.4,-168.22 507.35,-168.22 507.35,-204.22"/>
<text xml:space="preserve" text-anchor="middle" x="461.38" y="-181.97" font-family="Arial" font-size="10.00">Divergence</text>
</g>
<!-- DifferentialOperators&#45;&gt;Div -->
<g id="edge2" class="edge">
<title>DifferentialOperators&#45;&gt;Div</title>
<path fill="none" stroke="#0000aa" stroke-dasharray="1,5" d="M319,-283.77C339.92,-264.71 374.46,-234.81 407.4,-213.22 408.97,-212.19 410.59,-211.17 412.24,-210.16"/>
<polygon fill="#0000aa" stroke="#0000aa" points="413.69,-213.37 420.59,-205.33 410.19,-207.31 413.69,-213.37"/>
</g>
<!-- Lap -->
<g id="node4" class="node">
<title>Lap</title>
<polygon fill="#d5e8d4" stroke="black" points="503.6,-150.22 419.15,-150.22 419.15,-114.22 503.6,-114.22 503.6,-150.22"/>
<text xml:space="preserve" text-anchor="middle" x="461.38" y="-127.97" font-family="Arial" font-size="10.00">Laplacian</text>
</g>
<!-- DifferentialOperators&#45;&gt;Lap -->
<g id="edge3" class="edge">
<title>DifferentialOperators&#45;&gt;Lap</title>
<path fill="none" stroke="#0000aa" stroke-dasharray="1,5" d="M309.45,-283.86C326.47,-254.41 363.27,-196.2 407.4,-159.22 408.33,-158.44 409.29,-157.68 410.26,-156.93"/>
<polygon fill="#0000aa" stroke="#0000aa" points="412,-159.98 418.29,-151.45 408.06,-154.2 412,-159.98"/>
</g>
<!-- Curl -->
<g id="node5" class="node">
<title>Curl</title>
<polygon fill="#d5e8d4" stroke="black" points="491.98,-312.22 430.77,-312.22 430.77,-276.22 491.98,-276.22 491.98,-312.22"/>
<text xml:space="preserve" text-anchor="middle" x="461.38" y="-289.97" font-family="Arial" font-size="10.00">Curl</text>
</g>
<!-- DifferentialOperators&#45;&gt;Curl -->
<g id="edge4" class="edge">
<title>DifferentialOperators&#45;&gt;Curl</title>
<path fill="none" stroke="#0000aa" stroke-dasharray="1,5" d="M343.31,-300.04C367.06,-298.86 396.18,-297.41 419.44,-296.26"/>
<polygon fill="#0000aa" stroke="#0000aa" points="419.34,-299.76 429.16,-295.77 418.99,-292.77 419.34,-299.76"/>
</g>
<!-- D1 -->
<g id="node8" class="node">
<title>D1</title>
<polygon fill="#dae8fc" stroke="black" points="628.08,-156.22 572.12,-156.22 572.12,-120.22 628.08,-120.22 628.08,-156.22"/>
<text xml:space="preserve" text-anchor="middle" x="600.1" y="-133.97" font-family="Arial" font-size="10.00">1D</text>
</g>
<!-- Grad&#45;&gt;D1 -->
<g id="edge5" class="edge">
<title>Grad&#45;&gt;D1</title>
<path fill="none" stroke="#006600" stroke-dasharray="5,2" d="M501.67,-230.24C510.09,-226.29 518.04,-220.81 523.35,-213.22 538.3,-191.88 512.3,-114.01 531.35,-96.22 545.35,-83.15 564.01,-96.48 578.2,-111.49"/>
<polygon fill="#006600" stroke="#006600" points="575.33,-113.52 584.56,-118.71 580.58,-108.9 575.33,-113.52"/>
</g>
<!-- D2 -->
<g id="node9" class="node">
<title>D2</title>
<polygon fill="#dae8fc" stroke="black" points="628.08,-264.22 572.12,-264.22 572.12,-228.22 628.08,-228.22 628.08,-264.22"/>
<text xml:space="preserve" text-anchor="middle" x="600.1" y="-241.97" font-family="Arial" font-size="10.00">2D</text>
</g>
<!-- Grad&#45;&gt;D2 -->
<g id="edge6" class="edge">
<title>Grad&#45;&gt;D2</title>
<path fill="none" stroke="#006600" stroke-dasharray="5,2" d="M501.84,-250.84C510.04,-254.75 517.85,-260.06 523.35,-267.22 537.32,-285.42 513.91,-303.31 531.35,-318.22 552.65,-336.44 574.35,-302.11 587.27,-274.86"/>
<polygon fill="#006600" stroke="#006600" points="590.38,-276.46 591.3,-265.91 584,-273.59 590.38,-276.46"/>
</g>
<!-- D3 -->
<g id="node10" class="node">
<title>D3</title>
<polygon fill="#dae8fc" stroke="black" points="628.08,-210.22 572.12,-210.22 572.12,-174.22 628.08,-174.22 628.08,-210.22"/>
<text xml:space="preserve" text-anchor="middle" x="600.1" y="-187.97" font-family="Arial" font-size="10.00">3D</text>
</g>
<!-- Grad&#45;&gt;D3 -->
<g id="edge7" class="edge">
<title>Grad&#45;&gt;D3</title>
<path fill="none" stroke="#006600" stroke-dasharray="5,2" d="M501.55,-226.47C520.2,-219.92 542.41,-212.12 560.93,-205.62"/>
<polygon fill="#006600" stroke="#006600" points="561.93,-208.98 570.2,-202.37 559.61,-202.38 561.93,-208.98"/>
</g>
<!-- Div&#45;&gt;D1 -->
<g id="edge8" class="edge">
<title>Div&#45;&gt;D1</title>
<path fill="none" stroke="#006600" stroke-dasharray="5,2" d="M507.75,-172.9C513.8,-169.35 519.3,-164.87 523.35,-159.22 534.8,-143.27 516.85,-84.46 531.35,-71.22 551,-53.28 572.7,-84.33 586.12,-109.89"/>
<polygon fill="#006600" stroke="#006600" points="582.89,-111.27 590.49,-118.65 589.16,-108.14 582.89,-111.27"/>
</g>
<!-- Div&#45;&gt;D2 -->
<g id="edge9" class="edge">
<title>Div&#45;&gt;D2</title>
<path fill="none" stroke="#006600" stroke-dasharray="5,2" d="M507.71,-199.57C513.76,-203.12 519.28,-207.6 523.35,-213.22 533.83,-227.69 518.1,-281.23 531.35,-293.22 546.63,-307.05 566.14,-290.47 580.29,-273.31"/>
<polygon fill="#006600" stroke="#006600" points="582.88,-275.69 586.23,-265.64 577.34,-271.4 582.88,-275.69"/>
</g>
<!-- Div&#45;&gt;D3 -->
<g id="edge10" class="edge">
<title>Div&#45;&gt;D3</title>
<path fill="none" stroke="#006600" stroke-dasharray="5,2" d="M507.52,-188.2C524.67,-188.96 544.03,-189.81 560.52,-190.53"/>
<polygon fill="#006600" stroke="#006600" points="560.29,-194.02 570.44,-190.96 560.6,-187.03 560.29,-194.02"/>
</g>
<!-- Lap&#45;&gt;D1 -->
<g id="edge11" class="edge">
<title>Lap&#45;&gt;D1</title>
<path fill="none" stroke="#006600" stroke-dasharray="5,2" d="M467.74,-113.76C477.49,-83.87 500.11,-29.78 532.35,-46.22 558.22,-59.41 576.4,-87.83 587.19,-109.62"/>
<polygon fill="#006600" stroke="#006600" points="583.98,-111.03 591.38,-118.61 590.33,-108.07 583.98,-111.03"/>
</g>
<!-- Lap&#45;&gt;D2 -->
<g id="edge12" class="edge">
<title>Lap&#45;&gt;D2</title>
<path fill="none" stroke="#006600" stroke-dasharray="5,2" d="M503.84,-143.29C511.43,-147.15 518.48,-152.31 523.35,-159.22 537.34,-179.08 513.56,-251.69 531.35,-268.22 540.6,-276.82 553.25,-275.06 565.11,-269.84"/>
<polygon fill="#006600" stroke="#006600" points="566.66,-272.98 573.89,-265.23 563.41,-266.78 566.66,-272.98"/>
</g>
<!-- Lap&#45;&gt;D3 -->
<g id="edge13" class="edge">
<title>Lap&#45;&gt;D3</title>
<path fill="none" stroke="#006600" stroke-dasharray="5,2" d="M503.77,-150.39C522.08,-158.42 543.46,-167.81 561.33,-175.65"/>
<polygon fill="#006600" stroke="#006600" points="559.72,-178.76 570.29,-179.58 562.54,-172.35 559.72,-178.76"/>
</g>
<!-- Curl&#45;&gt;D2 -->
<g id="edge14" class="edge">
<title>Curl&#45;&gt;D2</title>
<path fill="none" stroke="#006600" stroke-dasharray="5,2" d="M478.29,-312.52C492.35,-326.33 513.48,-341.46 532.35,-332.22 556.78,-320.26 574.84,-294.57 585.97,-274.36"/>
<polygon fill="#006600" stroke="#006600" points="588.94,-276.23 590.45,-265.74 582.73,-273 588.94,-276.23"/>
</g>
<!-- NonUniform -->
<g id="node6" class="node">
<title>NonUniform</title>
<polygon fill="#ffe6cc" stroke="black" points="789.95,-264.22 691.25,-264.22 691.25,-228.22 789.95,-228.22 789.95,-264.22"/>
<text xml:space="preserve" text-anchor="middle" x="740.6" y="-241.97" font-family="Arial" font-size="10.00">Non&#45;Uniform</text>
</g>
<!-- Curvilinear -->
<g id="node7" class="node">
<title>Curvilinear</title>
<polygon fill="#ffe6cc" stroke="black" points="785.83,-210.22 695.38,-210.22 695.38,-174.22 785.83,-174.22 785.83,-210.22"/>
<text xml:space="preserve" text-anchor="middle" x="740.6" y="-187.97" font-family="Arial" font-size="10.00">Curvilinear</text>
</g>
<!-- D2&#45;&gt;NonUniform -->
<g id="edge15" class="edge">
<title>D2&#45;&gt;NonUniform</title>
<path fill="none" stroke="#aa6600" d="M639.52,-246.22C651.96,-246.22 666.08,-246.22 679.7,-246.22"/>
<polygon fill="#aa6600" stroke="#aa6600" points="639.98,-242.72 629.98,-246.22 639.98,-249.72 639.98,-242.72"/>
<polygon fill="#aa6600" stroke="#aa6600" points="679.47,-249.72 689.47,-246.22 679.47,-242.72 679.47,-249.72"/>
</g>
<!-- D2&#45;&gt;Curvilinear -->
<g id="edge17" class="edge">
<title>D2&#45;&gt;Curvilinear</title>
<path fill="none" stroke="#aa6600" d="M638.8,-231.52C652.94,-226.01 669.3,-219.63 684.67,-213.64"/>
<polygon fill="#aa6600" stroke="#aa6600" points="637.92,-228.11 629.87,-235 640.46,-234.63 637.92,-228.11"/>
<polygon fill="#aa6600" stroke="#aa6600" points="685.67,-217.01 693.71,-210.11 683.12,-210.49 685.67,-217.01"/>
</g>
<!-- D3&#45;&gt;NonUniform -->
<g id="edge16" class="edge">
<title>D3&#45;&gt;NonUniform</title>
<path fill="none" stroke="#aa6600" d="M638.83,-206.93C652.12,-212.11 667.38,-218.06 681.94,-223.74"/>
<polygon fill="#aa6600" stroke="#aa6600" points="640.46,-203.81 629.87,-203.44 637.92,-210.33 640.46,-203.81"/>
<polygon fill="#aa6600" stroke="#aa6600" points="680.37,-226.89 690.96,-227.26 682.92,-220.37 680.37,-226.89"/>
</g>
<!-- D3&#45;&gt;Curvilinear -->
<g id="edge18" class="edge">
<title>D3&#45;&gt;Curvilinear</title>
<path fill="none" stroke="#aa6600" d="M639.79,-192.22C653.49,-192.22 669.18,-192.22 684,-192.22"/>
<polygon fill="#aa6600" stroke="#aa6600" points="639.98,-188.72 629.98,-192.22 639.98,-195.72 639.98,-188.72"/>
<polygon fill="#aa6600" stroke="#aa6600" points="683.61,-195.72 693.61,-192.22 683.61,-188.72 683.61,-195.72"/>
</g>
<!-- InterpolationOperators -->
<g id="node11" class="node">
<title>InterpolationOperators</title>
<polygon fill="#e1d5e7" stroke="black" points="346.9,-425.22 249.7,-425.22 249.7,-389.22 346.9,-389.22 346.9,-425.22"/>
<text xml:space="preserve" text-anchor="middle" x="298.3" y="-408.22" font-family="Arial" font-size="10.00">Interpolation</text>
<text xml:space="preserve" text-anchor="middle" x="298.3" y="-397.72" font-family="Arial" font-size="10.00">Operators</text>
</g>
<!-- InterpolationOperators&#45;&gt;DifferentialOperators -->
<g id="edge19" class="edge">
<title>InterpolationOperators&#45;&gt;DifferentialOperators</title>
<path fill="none" stroke="#990000" d="M298.3,-377.6C298.3,-363.34 298.3,-346.29 298.3,-332.02"/>
<polygon fill="#990000" stroke="#990000" points="294.8,-377.28 298.3,-387.28 301.8,-377.28 294.8,-377.28"/>
<polygon fill="#990000" stroke="#990000" points="301.8,-332.02 298.3,-322.02 294.8,-332.02 301.8,-332.02"/>
<text xml:space="preserve" text-anchor="middle" x="290.42" y="-351.05" font-family="Arial" font-size="9.00">supports</text>
</g>
<!-- InterpolationOperators&#45;&gt;D1 -->
<g id="edge25" class="edge">
<title>InterpolationOperators&#45;&gt;D1</title>
<path fill="none" stroke="#6600cc" stroke-dasharray="1,5" d="M347.17,-395.72C406.08,-380.56 501.08,-352.48 523.35,-324.22 567.4,-268.33 500.83,-223.03 542.35,-165.22 547.15,-158.54 554.05,-153.45 561.4,-149.59"/>
<polygon fill="#6600cc" stroke="#6600cc" points="562.8,-152.8 570.52,-145.54 559.96,-146.4 562.8,-152.8"/>
</g>
<!-- InterpolationOperators&#45;&gt;D2 -->
<g id="edge26" class="edge">
<title>InterpolationOperators&#45;&gt;D2</title>
<path fill="none" stroke="#6600cc" stroke-dasharray="1,5" d="M346.84,-425.66C395.34,-441.16 470.74,-455.78 523.35,-421.22 572.61,-388.87 589.99,-316.9 596.01,-276.04"/>
<polygon fill="#6600cc" stroke="#6600cc" points="599.47,-276.56 597.31,-266.18 592.53,-275.64 599.47,-276.56"/>
</g>
<!-- InterpolationOperators&#45;&gt;D3 -->
<g id="edge27" class="edge">
<title>InterpolationOperators&#45;&gt;D3</title>
<path fill="none" stroke="#6600cc" stroke-dasharray="1,5" d="M347.36,-408.81C405.72,-409.62 499.35,-407.01 523.35,-383.22 549.4,-357.39 521,-249.06 542.35,-219.22 547.14,-212.53 554.04,-207.43 561.38,-203.58"/>
<polygon fill="#6600cc" stroke="#6600cc" points="562.78,-206.78 570.5,-199.53 559.94,-200.39 562.78,-206.78"/>
</g>
<!-- BoundaryConditions -->
<g id="node12" class="node">
<title>BoundaryConditions</title>
<polygon fill="#e1d5e7" stroke="black" points="120.33,-403.22 30.63,-403.22 30.63,-367.22 120.33,-367.22 120.33,-403.22"/>
<text xml:space="preserve" text-anchor="middle" x="75.48" y="-386.22" font-family="Arial" font-size="10.00">Boundary</text>
<text xml:space="preserve" text-anchor="middle" x="75.48" y="-375.72" font-family="Arial" font-size="10.00">Conditions</text>
</g>
<!-- BoundaryConditions&#45;&gt;DifferentialOperators -->
<g id="edge20" class="edge">
<title>BoundaryConditions&#45;&gt;DifferentialOperators</title>
<path fill="none" stroke="#990000" d="M131.4,-364.58C165.32,-351.83 208.69,-335.53 242.58,-322.79"/>
<polygon fill="#990000" stroke="#990000" points="130.18,-361.3 122.05,-368.09 132.64,-367.85 130.18,-361.3"/>
<polygon fill="#990000" stroke="#990000" points="243.67,-326.12 251.8,-319.32 241.21,-319.56 243.67,-326.12"/>
<text xml:space="preserve" text-anchor="middle" x="176.57" y="-357.21" font-family="Arial" font-size="9.00">enhances</text>
</g>
<!-- BoundaryConditions&#45;&gt;D1 -->
<g id="edge28" class="edge">
<title>BoundaryConditions&#45;&gt;D1</title>
<path fill="none" stroke="#6600cc" stroke-dasharray="1,5" d="M78.68,-366.78C86.31,-305.73 113.29,-111.34 152.95,-64.22 236.13,34.6 409.72,-1.82 523.35,-36.22 556.78,-46.34 577.84,-82.98 589.04,-109.45"/>
<polygon fill="#6600cc" stroke="#6600cc" points="585.75,-110.65 592.69,-118.66 592.26,-108.07 585.75,-110.65"/>
</g>
<!-- BoundaryConditions&#45;&gt;D2 -->
<g id="edge29" class="edge">
<title>BoundaryConditions&#45;&gt;D2</title>
<path fill="none" stroke="#6600cc" stroke-dasharray="1,5" d="M78.81,-366.85C86.72,-313.26 117.9,-156.93 218.2,-94.22 275.72,-58.26 473.1,-56.65 523.35,-102.22 528.23,-106.65 538.4,-213.96 542.35,-219.22 547.25,-225.75 554.12,-230.76 561.41,-234.6"/>
<polygon fill="#6600cc" stroke="#6600cc" points="559.87,-237.74 570.43,-238.64 562.74,-231.35 559.87,-237.74"/>
</g>
<!-- BoundaryConditions&#45;&gt;D3 -->
<g id="edge30" class="edge">
<title>BoundaryConditions&#45;&gt;D3</title>
<path fill="none" stroke="#6600cc" stroke-dasharray="1,5" d="M76.92,-366.72C78.96,-318.49 90.31,-186.86 152.95,-103.22 173.34,-76 185.46,-72.46 218.2,-63.22 283.47,-44.81 471.43,-21.6 523.35,-65.22 557.99,-94.32 514.71,-129.41 542.35,-165.22 547.35,-171.69 554.28,-176.69 561.59,-180.52"/>
<polygon fill="#6600cc" stroke="#6600cc" points="559.71,-183.51 570.26,-184.43 562.58,-177.13 559.71,-183.51"/>
</g>
<!-- GridTransformation -->
<g id="node13" class="node">
<title>GridTransformation</title>
<polygon fill="#e1d5e7" stroke="black" points="129.33,-511.22 21.63,-511.22 21.63,-475.22 129.33,-475.22 129.33,-511.22"/>
<text xml:space="preserve" text-anchor="middle" x="75.48" y="-494.22" font-family="Arial" font-size="10.00">Grid</text>
<text xml:space="preserve" text-anchor="middle" x="75.48" y="-483.72" font-family="Arial" font-size="10.00">Transformation</text>
</g>
<!-- GridTransformation&#45;&gt;DifferentialOperators -->
<g id="edge21" class="edge">
<title>GridTransformation&#45;&gt;DifferentialOperators</title>
<path fill="none" stroke="#990000" d="M119.55,-474.73C124.83,-472.05 130.08,-469.19 134.95,-466.22 166.37,-447.05 179.43,-445.61 200.2,-415.22 215.91,-392.23 201.66,-377.62 218.2,-355.22 226.48,-344 237.9,-334.42 249.48,-326.62"/>
<polygon fill="#990000" stroke="#990000" points="251.33,-329.59 257.91,-321.29 247.59,-323.67 251.33,-329.59"/>
<text xml:space="preserve" text-anchor="middle" x="176.57" y="-456.84" font-family="Arial" font-size="9.00">enables</text>
</g>
<!-- WeightFunctions -->
<g id="node14" class="node">
<title>WeightFunctions</title>
<polygon fill="#e1d5e7" stroke="black" points="118.45,-565.22 32.5,-565.22 32.5,-529.22 118.45,-529.22 118.45,-565.22"/>
<text xml:space="preserve" text-anchor="middle" x="75.48" y="-548.22" font-family="Arial" font-size="10.00">Weight</text>
<text xml:space="preserve" text-anchor="middle" x="75.48" y="-537.72" font-family="Arial" font-size="10.00">Functions</text>
</g>
<!-- WeightFunctions&#45;&gt;DifferentialOperators -->
<g id="edge22" class="edge">
<title>WeightFunctions&#45;&gt;DifferentialOperators</title>
<path fill="none" stroke="#990000" d="M118.66,-529.9C124.31,-526.96 129.89,-523.72 134.95,-520.22 144.19,-513.83 144.33,-509.67 152.95,-502.47 172.66,-486.01 186.62,-491.02 200.2,-469.22 227.32,-425.68 190.58,-398.45 218.2,-355.22 225.5,-343.79 236.24,-334.25 247.48,-326.55"/>
<polygon fill="#990000" stroke="#990000" points="249.12,-329.65 255.68,-321.33 245.36,-323.75 249.12,-329.65"/>
<text xml:space="preserve" text-anchor="middle" x="176.57" y="-503.67" font-family="Arial" font-size="9.00">configures</text>
</g>
<!-- WeightFunctions&#45;&gt;InterpolationOperators -->
<g id="edge23" class="edge">
<title>WeightFunctions&#45;&gt;InterpolationOperators</title>
<path fill="none" stroke="#990000" d="M118.7,-542.96C143.81,-538.95 175.48,-531.19 200.2,-516.22 234.08,-495.72 262.78,-459.63 279.99,-434.63"/>
<polygon fill="#990000" stroke="#990000" points="282.73,-436.83 285.39,-426.58 276.91,-432.94 282.73,-436.83"/>
<text xml:space="preserve" text-anchor="middle" x="176.57" y="-536.13" font-family="Arial" font-size="9.00">configures</text>
</g>
<!-- MimeticOperators -->
<g id="node15" class="node">
<title>MimeticOperators</title>
<polygon fill="#e1d5e7" stroke="black" points="118.83,-457.22 32.13,-457.22 32.13,-421.22 118.83,-421.22 118.83,-457.22"/>
<text xml:space="preserve" text-anchor="middle" x="75.48" y="-440.22" font-family="Arial" font-size="10.00">Mimetic</text>
<text xml:space="preserve" text-anchor="middle" x="75.48" y="-429.72" font-family="Arial" font-size="10.00">Operators</text>
</g>
<!-- MimeticOperators&#45;&gt;DifferentialOperators -->
<g id="edge24" class="edge">
<title>MimeticOperators&#45;&gt;DifferentialOperators</title>
<path fill="none" stroke="#990000" d="M118.39,-420.8C124.02,-418.06 129.67,-415.16 134.95,-412.22 165.3,-395.34 171.97,-389.45 200.2,-369.22 208.44,-363.32 209.99,-361.16 218.2,-355.22 231.46,-345.64 246.29,-335.54 259.5,-326.77"/>
<polygon fill="#990000" stroke="#990000" points="261.1,-329.9 267.52,-321.47 257.24,-324.06 261.1,-329.9"/>
<text xml:space="preserve" text-anchor="middle" x="176.57" y="-402.82" font-family="Arial" font-size="9.00">implements</text>
</g>
<!-- leg_title -->
<g id="node16" class="node">
<title>leg_title</title>
<text xml:space="preserve" text-anchor="middle" x="75.48" y="-734.55" font-family="Arial" font-size="9.00">Connection Types:</text>
</g>
<!-- leg_core -->
<g id="node17" class="node">
<title>leg_core</title>
<text xml:space="preserve" text-anchor="middle" x="298.3" y="-680.55" font-family="Arial" font-size="9.00">Core Relationship</text>
</g>
<!-- leg_title&#45;&gt;leg_core -->
<g id="edge31" class="edge">
<title>leg_title&#45;&gt;leg_core</title>
<path fill="none" stroke="#0000aa" stroke-dasharray="1,5" d="M134.78,-723.96C163.69,-716.89 198.78,-708.31 228.94,-700.94"/>
<polygon fill="#0000aa" stroke="#0000aa" points="229.46,-704.41 238.34,-698.64 227.8,-697.61 229.46,-704.41"/>
</g>
<!-- leg_dim -->
<g id="node18" class="node">
<title>leg_dim</title>
<text xml:space="preserve" text-anchor="middle" x="298.3" y="-734.55" font-family="Arial" font-size="9.00">Dimensional Implementation</text>
</g>
<!-- leg_title&#45;&gt;leg_dim -->
<g id="edge32" class="edge">
<title>leg_title&#45;&gt;leg_dim</title>
<path fill="none" stroke="#006600" stroke-dasharray="5,2" d="M134.78,-738.22C156.85,-738.22 182.51,-738.22 206.84,-738.22"/>
<polygon fill="#006600" stroke="#006600" points="206.76,-741.72 216.76,-738.22 206.76,-734.72 206.76,-741.72"/>
</g>
<!-- leg_variant -->
<g id="node19" class="node">
<title>leg_variant</title>
<text xml:space="preserve" text-anchor="middle" x="298.3" y="-788.55" font-family="Arial" font-size="9.00">Variant Relationship</text>
</g>
<!-- leg_title&#45;&gt;leg_variant -->
<g id="edge33" class="edge">
<title>leg_title&#45;&gt;leg_variant</title>
<path fill="none" stroke="#aa6600" d="M134.78,-752.48C162.32,-759.21 195.46,-767.32 224.61,-774.45"/>
<polygon fill="#aa6600" stroke="#aa6600" points="223.56,-777.79 234.1,-776.77 225.22,-770.99 223.56,-777.79"/>
</g>
<!-- leg_support -->
<g id="node20" class="node">
<title>leg_support</title>
<text xml:space="preserve" text-anchor="middle" x="298.3" y="-842.55" font-family="Arial" font-size="9.00">Support Relationship</text>
</g>
<!-- leg_title&#45;&gt;leg_support -->
<g id="edge34" class="edge">
<title>leg_title&#45;&gt;leg_support</title>
<path fill="none" stroke="#990000" d="M104.15,-756.14C132.12,-773.76 177,-800.62 218.2,-819.22 221.99,-820.93 225.93,-822.6 229.93,-824.21"/>
<polygon fill="#990000" stroke="#990000" points="228.61,-827.46 239.2,-827.8 231.13,-820.93 228.61,-827.46"/>
</g>
<!-- leg_dim_support -->
<g id="node21" class="node">
<title>leg_dim_support</title>
<text xml:space="preserve" text-anchor="middle" x="298.3" y="-626.55" font-family="Arial" font-size="9.00">Dimensional Support</text>
</g>
<!-- leg_title&#45;&gt;leg_dim_support -->
<g id="edge35" class="edge">
<title>leg_title&#45;&gt;leg_dim_support</title>
<path fill="none" stroke="#6600cc" stroke-dasharray="1,5" d="M104.15,-720.3C132.12,-702.69 177,-675.82 218.2,-657.22 221.99,-655.51 225.93,-653.84 229.93,-652.23"/>
<polygon fill="#6600cc" stroke="#6600cc" points="231.13,-655.52 239.2,-648.65 228.61,-648.99 231.13,-655.52"/>
</g>
</g>
</svg>
