<?xml version="1.0" encoding="UTF-8" standalone="no"?>
<!DOCTYPE svg PUBLIC "-//W3C//DTD SVG 1.1//EN"
 "http://www.w3.org/Graphics/SVG/1.1/DTD/svg11.dtd">
<!-- Generated by graphviz version 14.0.2 (0)
 -->
<!-- Title: mole_class_structure Pages: 1 -->
<svg width="915pt" height="364pt"
 viewBox="0.00 0.00 915.00 364.00" xmlns="http://www.w3.org/2000/svg" xmlns:xlink="http://www.w3.org/1999/xlink">
<g id="graph0" class="graph" transform="scale(1 1) rotate(0) translate(4 359.51)">
<title>mole_class_structure</title>
<g id="clust1" class="cluster">
<title>cluster_base</title>
<polygon fill="#f5f5f5" stroke="#f5f5f5" points="155.6,-163 155.6,-321 283.6,-321 283.6,-163 155.6,-163"/>
<text xml:space="preserve" text-anchor="middle" x="219.6" y="-303.7" font-family="Arial" font-size="14.00">Base Classes</text>
</g>
<g id="clust2" class="cluster">
<title>cluster_operators</title>
<polygon fill="#f5f5f5" stroke="#f5f5f5" points="303.6,-8 303.6,-155 631.6,-155 631.6,-8 303.6,-8"/>
<text xml:space="preserve" text-anchor="middle" x="467.6" y="-137.7" font-family="Arial" font-size="14.00">Core Operators</text>
</g>
<g id="clust3" class="cluster">
<title>cluster_bc</title>
<polygon fill="#f5f5f5" stroke="#f5f5f5" points="20.6,-80 20.6,-155 295.6,-155 295.6,-80 20.6,-80"/>
<text xml:space="preserve" text-anchor="middle" x="158.1" y="-137.7" font-family="Arial" font-size="14.00">Boundary Conditions</text>
</g>
<g id="clust4" class="cluster">
<title>cluster_utils</title>
<polygon fill="#f5f5f5" stroke="#f5f5f5" points="291.6,-163 291.6,-238 692.6,-238 692.6,-163 291.6,-163"/>
<text xml:space="preserve" text-anchor="middle" x="492.1" y="-220.7" font-family="Arial" font-size="14.00">Utilities</text>
</g>
<g id="clust12" class="cluster">
<title>cluster_legend</title>
<polygon fill="#f5f5f5" stroke="#f5f5f5" points="291.6,-246 291.6,-316.5 898.6,-316.5 898.6,-246 291.6,-246"/>
<text xml:space="preserve" text-anchor="middle" x="595.1" y="-303" font-family="Arial" font-size="10.00">Legend</text>
</g>
<!-- sp_mat -->
<g id="node1" class="node">
<title>sp_mat</title>
<polygon fill="#e8f4f9" stroke="black" points="264.45,-290 174.75,-290 174.75,-254 264.45,-254 264.45,-290"/>
<text xml:space="preserve" text-anchor="middle" x="219.6" y="-273" font-family="Arial" font-size="10.00">sp_mat</text>
<text xml:space="preserve" text-anchor="middle" x="219.6" y="-262.5" font-family="Arial" font-size="10.00">(Armadillo)</text>
</g>
<!-- Operator -->
<g id="node2" class="node">
<title>Operator</title>
<polygon fill="#e8f4f9" stroke="black" points="275.32,-207 163.87,-207 163.87,-171 275.32,-171 275.32,-207"/>
<text xml:space="preserve" text-anchor="middle" x="219.6" y="-190" font-family="Arial" font-size="10.00">Operator</text>
<text xml:space="preserve" text-anchor="middle" x="219.6" y="-179.5" font-family="Arial" font-size="10.00">(Abstract Base)</text>
</g>
<!-- sp_mat&#45;&gt;Operator -->
<g id="edge1" class="edge">
<title>sp_mat&#45;&gt;Operator</title>
<path fill="none" stroke="#0000aa" stroke-width="1.5" d="M219.6,-241.64C219.6,-230.16 219.6,-217.4 219.6,-207.43"/>
<polygon fill="none" stroke="#0000aa" stroke-width="1.5" points="216.1,-241.55 219.6,-251.55 223.1,-241.55 216.1,-241.55"/>
</g>
<!-- Interpol -->
<g id="node3" class="node">
<title>Interpol</title>
<polygon fill="#d5e8d4" stroke="black" points="415.2,-124 312,-124 312,-88 415.2,-88 415.2,-124"/>
<text xml:space="preserve" text-anchor="middle" x="363.6" y="-107" font-family="Arial" font-size="10.00">Interpol</text>
<text xml:space="preserve" text-anchor="middle" x="363.6" y="-96.5" font-family="Arial" font-size="10.00">(Interpolation)</text>
</g>
<!-- Operator&#45;&gt;Interpol -->
<g id="edge2" class="edge">
<title>Operator&#45;&gt;Interpol</title>
<path fill="none" stroke="#0000aa" stroke-width="1.5" d="M278.47,-165.72C285.72,-162.4 292.92,-158.8 299.6,-155 315.05,-146.21 331.05,-134.21 343.18,-124.41"/>
<polygon fill="none" stroke="#0000aa" stroke-width="1.5" points="277.31,-162.41 269.57,-169.64 280.13,-168.82 277.31,-162.41"/>
</g>
<!-- Gradient -->
<g id="node4" class="node">
<title>Gradient</title>
<polygon fill="#d5e8d4" stroke="black" points="513.57,-124 433.62,-124 433.62,-88 513.57,-88 513.57,-124"/>
<text xml:space="preserve" text-anchor="middle" x="473.6" y="-101.75" font-family="Arial" font-size="10.00">Gradient</text>
</g>
<!-- Operator&#45;&gt;Gradient -->
<g id="edge3" class="edge">
<title>Operator&#45;&gt;Gradient</title>
<path fill="none" stroke="#0000aa" stroke-width="1.5" d="M272.64,-166.82C277.64,-165.34 282.68,-164.02 287.6,-163 317.45,-156.78 396.71,-167.34 424.6,-155 439.41,-148.44 452.31,-135.31 461.15,-124.43"/>
<polygon fill="none" stroke="#0000aa" stroke-width="1.5" points="271.71,-163.45 263.27,-169.86 273.86,-170.11 271.71,-163.45"/>
</g>
<!-- Divergence -->
<g id="node5" class="node">
<title>Divergence</title>
<polygon fill="#d5e8d4" stroke="black" points="623.57,-124 531.62,-124 531.62,-88 623.57,-88 623.57,-124"/>
<text xml:space="preserve" text-anchor="middle" x="577.6" y="-101.75" font-family="Arial" font-size="10.00">Divergence</text>
</g>
<!-- Operator&#45;&gt;Divergence -->
<g id="edge4" class="edge">
<title>Operator&#45;&gt;Divergence</title>
<path fill="none" stroke="#0000aa" stroke-width="1.5" d="M271.98,-166.88C277.19,-165.34 282.46,-164.01 287.6,-163 313.24,-157.98 498.29,-164.59 522.6,-155 538.87,-148.58 553.58,-135.13 563.68,-124.1"/>
<polygon fill="none" stroke="#0000aa" stroke-width="1.5" points="271.32,-163.42 262.87,-169.82 273.46,-170.08 271.32,-163.42"/>
</g>
<!-- Laplacian -->
<g id="node6" class="node">
<title>Laplacian</title>
<polygon fill="#d5e8d4" stroke="black" points="567.82,-52 483.37,-52 483.37,-16 567.82,-16 567.82,-52"/>
<text xml:space="preserve" text-anchor="middle" x="525.6" y="-29.75" font-family="Arial" font-size="10.00">Laplacian</text>
</g>
<!-- Operator&#45;&gt;Laplacian -->
<g id="edge5" class="edge">
<title>Operator&#45;&gt;Laplacian</title>
<path fill="none" stroke="#0000aa" stroke-width="1.5" d="M151.45,-186.12C99.41,-183.07 33.78,-175.21 16.6,-155 -5,-129.61 -5.91,-104.59 16.6,-80 47.86,-45.85 366.58,-37.47 483.17,-35.54"/>
<polygon fill="none" stroke="#0000aa" stroke-width="1.5" points="151.24,-189.61 161.41,-186.64 151.6,-182.62 151.24,-189.61"/>
</g>
<!-- RobinBC -->
<g id="node7" class="node">
<title>RobinBC</title>
<polygon fill="#ffe6cc" stroke="black" points="186.95,-124 28.25,-124 28.25,-88 186.95,-88 186.95,-124"/>
<text xml:space="preserve" text-anchor="middle" x="107.6" y="-107" font-family="Arial" font-size="10.00">RobinBC</text>
<text xml:space="preserve" text-anchor="middle" x="107.6" y="-96.5" font-family="Arial" font-size="10.00">(Robin/Neumann/Dirichlet)</text>
</g>
<!-- Operator&#45;&gt;RobinBC -->
<g id="edge6" class="edge">
<title>Operator&#45;&gt;RobinBC</title>
<path fill="none" stroke="#0000aa" stroke-width="1.5" d="M185.74,-163.52C168.27,-150.88 147.37,-135.77 131.58,-124.35"/>
<polygon fill="none" stroke="#0000aa" stroke-width="1.5" points="183.58,-166.27 193.73,-169.29 187.68,-160.6 183.58,-166.27"/>
</g>
<!-- MixedBC -->
<g id="node8" class="node">
<title>MixedBC</title>
<polygon fill="#ffe6cc" stroke="black" points="288.07,-124 205.12,-124 205.12,-88 288.07,-88 288.07,-124"/>
<text xml:space="preserve" text-anchor="middle" x="246.6" y="-107" font-family="Arial" font-size="10.00">MixedBC</text>
<text xml:space="preserve" text-anchor="middle" x="246.6" y="-96.5" font-family="Arial" font-size="10.00">(Mixed)</text>
</g>
<!-- Operator&#45;&gt;MixedBC -->
<g id="edge7" class="edge">
<title>Operator&#45;&gt;MixedBC</title>
<path fill="none" stroke="#0000aa" stroke-width="1.5" d="M229.14,-159.38C233.02,-147.72 237.39,-134.61 240.79,-124.43"/>
<polygon fill="none" stroke="#0000aa" stroke-width="1.5" points="225.88,-158.07 226.04,-168.67 232.52,-160.29 225.88,-158.07"/>
</g>
<!-- Gradient&#45;&gt;Laplacian -->
<g id="edge8" class="edge">
<title>Gradient&#45;&gt;Laplacian</title>
<path fill="none" stroke="#006600" stroke-dasharray="5,2" d="M486.45,-87.7C492.37,-79.73 499.52,-70.1 506.09,-61.26"/>
<polygon fill="#006600" stroke="#006600" points="508.83,-63.43 511.99,-53.32 503.21,-59.26 508.83,-63.43"/>
</g>
<!-- Divergence&#45;&gt;Laplacian -->
<g id="edge9" class="edge">
<title>Divergence&#45;&gt;Laplacian</title>
<path fill="none" stroke="#006600" stroke-dasharray="5,2" d="M564.74,-87.7C558.82,-79.73 551.67,-70.1 545.11,-61.26"/>
<polygon fill="#006600" stroke="#006600" points="547.98,-59.26 539.21,-53.32 542.36,-63.43 547.98,-59.26"/>
</g>
<!-- RobinBC&#45;&gt;Gradient -->
<g id="edge20" class="edge">
<title>RobinBC&#45;&gt;Gradient</title>
<path fill="none" stroke="#aa6600" stroke-dasharray="5,2" d="M131.81,-124.24C150.75,-137.17 178.35,-153.22 205.6,-159 228.42,-163.84 392.77,-163.84 415.6,-159 431.07,-155.72 444.43,-144.53 454.42,-133.27"/>
<polygon fill="#aa6600" stroke="#aa6600" points="457.1,-135.51 460.72,-125.55 451.68,-131.09 457.1,-135.51"/>
</g>
<!-- RobinBC&#45;&gt;Divergence -->
<g id="edge21" class="edge">
<title>RobinBC&#45;&gt;Divergence</title>
<path fill="none" stroke="#aa6600" stroke-dasharray="5,2" d="M131.81,-124.24C150.75,-137.17 178.35,-153.22 205.6,-159 222.33,-162.55 496.86,-162.55 513.6,-159 530.29,-155.46 545.22,-143.87 556.45,-132.43"/>
<polygon fill="#aa6600" stroke="#aa6600" points="558.76,-135.1 562.93,-125.36 553.59,-130.37 558.76,-135.1"/>
</g>
<!-- MixedBC&#45;&gt;Gradient -->
<g id="edge22" class="edge">
<title>MixedBC&#45;&gt;Gradient</title>
<path fill="none" stroke="#aa6600" stroke-dasharray="5,2" d="M259.67,-124.29C270.81,-137.84 288.23,-154.68 308.6,-159 331.86,-163.94 392.34,-163.94 415.6,-159 419.88,-158.09 420.99,-157.48 424.6,-155 433.77,-148.7 442.72,-140.55 450.4,-132.71"/>
<polygon fill="#aa6600" stroke="#aa6600" points="452.85,-135.22 457.15,-125.54 447.75,-130.42 452.85,-135.22"/>
</g>
<!-- MixedBC&#45;&gt;Divergence -->
<g id="edge23" class="edge">
<title>MixedBC&#45;&gt;Divergence</title>
<path fill="none" stroke="#aa6600" stroke-dasharray="5,2" d="M259.67,-124.29C270.81,-137.84 288.23,-154.68 308.6,-159 330.88,-163.73 491.31,-163.73 513.6,-159 530.29,-155.46 545.22,-143.87 556.45,-132.43"/>
<polygon fill="#aa6600" stroke="#aa6600" points="558.76,-135.1 562.93,-125.36 553.59,-130.37 558.76,-135.1"/>
</g>
<!-- Utils -->
<g id="node9" class="node">
<title>Utils</title>
<polygon fill="#dae8fc" stroke="black" points="423.32,-207 299.87,-207 299.87,-171 423.32,-171 423.32,-207"/>
<text xml:space="preserve" text-anchor="middle" x="361.6" y="-190" font-family="Arial" font-size="10.00">Utils</text>
<text xml:space="preserve" text-anchor="middle" x="361.6" y="-179.5" font-family="Arial" font-size="10.00">(Helper Functions)</text>
</g>
<!-- Utils&#45;&gt;Gradient -->
<g id="edge10" class="edge">
<title>Utils&#45;&gt;Gradient</title>
<path fill="none" stroke="#990000" stroke-dasharray="1,5" d="M399.32,-170.54C407.92,-165.94 416.81,-160.66 424.6,-155 433.65,-148.42 442.66,-140.2 450.44,-132.43"/>
<polygon fill="#990000" stroke="#990000" points="452.84,-134.98 457.29,-125.36 447.82,-130.11 452.84,-134.98"/>
</g>
<!-- Utils&#45;&gt;Divergence -->
<g id="edge11" class="edge">
<title>Utils&#45;&gt;Divergence</title>
<path fill="none" stroke="#990000" stroke-dasharray="1,5" d="M405.8,-170.53C414.56,-167.61 423.78,-164.91 432.6,-163 471.84,-154.49 485.66,-170.75 522.6,-155 534.61,-149.88 545.87,-141.1 555.03,-132.44"/>
<polygon fill="#990000" stroke="#990000" points="557.49,-134.93 562.06,-125.37 552.52,-129.99 557.49,-134.93"/>
</g>
<!-- Utils&#45;&gt;Laplacian -->
<g id="edge12" class="edge">
<title>Utils&#45;&gt;Laplacian</title>
<path fill="none" stroke="#990000" stroke-dasharray="1,5" d="M404.59,-170.56C413.7,-167.52 423.36,-164.77 432.6,-163 443.52,-160.91 624.89,-163.02 632.6,-155 655.69,-130.96 651.04,-107.77 632.6,-80 620.45,-61.72 599.27,-50.84 578.94,-44.39"/>
<polygon fill="#990000" stroke="#990000" points="580.15,-41.09 569.58,-41.73 578.24,-47.83 580.15,-41.09"/>
</g>
<!-- Utils&#45;&gt;RobinBC -->
<g id="edge13" class="edge">
<title>Utils&#45;&gt;RobinBC</title>
<path fill="none" stroke="#990000" stroke-dasharray="1,5" d="M315.49,-170.54C306.35,-167.62 296.75,-164.92 287.6,-163 247.86,-154.67 235.49,-166.65 196.6,-155 177.97,-149.42 158.81,-139.68 143.05,-130.43"/>
<polygon fill="#990000" stroke="#990000" points="144.89,-127.46 134.53,-125.26 141.26,-133.44 144.89,-127.46"/>
</g>
<!-- Utils&#45;&gt;MixedBC -->
<g id="edge14" class="edge">
<title>Utils&#45;&gt;MixedBC</title>
<path fill="none" stroke="#990000" stroke-dasharray="1,5" d="M325.29,-170.61C316.63,-165.93 307.58,-160.61 299.6,-155 289.95,-148.22 280.16,-139.86 271.67,-132.03"/>
<polygon fill="#990000" stroke="#990000" points="274.11,-129.52 264.44,-125.19 269.3,-134.61 274.11,-129.52"/>
</g>
<!-- GridFunctions -->
<g id="node10" class="node">
<title>GridFunctions</title>
<polygon fill="#dae8fc" stroke="black" points="685.07,-207 578.12,-207 578.12,-171 685.07,-171 685.07,-207"/>
<text xml:space="preserve" text-anchor="middle" x="631.6" y="-184.75" font-family="Arial" font-size="10.00">Grid Functions</text>
</g>
<!-- GridFunctions&#45;&gt;Gradient -->
<g id="edge15" class="edge">
<title>GridFunctions&#45;&gt;Gradient</title>
<path fill="none" stroke="#990000" stroke-dasharray="1,5" d="M591.35,-170.61C583.88,-167.79 576.07,-165.11 568.6,-163 548.62,-157.37 541.06,-164.47 522.6,-155 512.06,-149.6 502.31,-141.15 494.33,-132.84"/>
<polygon fill="#990000" stroke="#990000" points="497,-130.57 487.71,-125.48 491.8,-135.25 497,-130.57"/>
</g>
<!-- GridFunctions&#45;&gt;Divergence -->
<g id="edge16" class="edge">
<title>GridFunctions&#45;&gt;Divergence</title>
<path fill="none" stroke="#990000" stroke-dasharray="1,5" d="M620.14,-170.82C612.96,-160.05 603.55,-145.94 595.41,-133.72"/>
<polygon fill="#990000" stroke="#990000" points="598.52,-132.07 590.06,-125.69 592.69,-135.95 598.52,-132.07"/>
</g>
<!-- WeightFunctions -->
<g id="node11" class="node">
<title>WeightFunctions</title>
<polygon fill="#dae8fc" stroke="black" points="560.07,-207 441.12,-207 441.12,-171 560.07,-171 560.07,-207"/>
<text xml:space="preserve" text-anchor="middle" x="500.6" y="-184.75" font-family="Arial" font-size="10.00">Weight Functions</text>
</g>
<!-- WeightFunctions&#45;&gt;Interpol -->
<g id="edge17" class="edge">
<title>WeightFunctions&#45;&gt;Interpol</title>
<path fill="none" stroke="#990000" stroke-dasharray="1,5" d="M455.44,-170.66C445.05,-166.06 434.23,-160.75 424.6,-155 413.26,-148.23 401.66,-139.61 391.66,-131.55"/>
<polygon fill="#990000" stroke="#990000" points="394.09,-129.01 384.15,-125.33 389.63,-134.41 394.09,-129.01"/>
</g>
<!-- WeightFunctions&#45;&gt;Gradient -->
<g id="edge18" class="edge">
<title>WeightFunctions&#45;&gt;Gradient</title>
<path fill="none" stroke="#990000" stroke-dasharray="1,5" d="M494.87,-170.82C491.42,-160.48 486.95,-147.05 482.99,-135.18"/>
<polygon fill="#990000" stroke="#990000" points="486.37,-134.25 479.89,-125.87 479.73,-136.46 486.37,-134.25"/>
</g>
<!-- WeightFunctions&#45;&gt;Divergence -->
<g id="edge19" class="edge">
<title>WeightFunctions&#45;&gt;Divergence</title>
<path fill="none" stroke="#990000" stroke-dasharray="1,5" d="M516.93,-170.82C527.47,-159.73 541.38,-145.09 553.22,-132.64"/>
<polygon fill="#990000" stroke="#990000" points="555.63,-135.19 559.98,-125.53 550.56,-130.37 555.63,-135.19"/>
</g>
<!-- leg_title -->
<g id="node12" class="node">
<title>leg_title</title>
<text xml:space="preserve" text-anchor="middle" x="361.6" y="-268.32" font-family="Arial" font-size="9.00">Relationship Types:</text>
</g>
<!-- leg_inherit -->
<g id="node13" class="node">
<title>leg_inherit</title>
<text xml:space="preserve" text-anchor="middle" x="485.6" y="-268.32" font-family="Arial" font-size="9.00">Inheritance</text>
</g>
<!-- leg_title&#45;&gt;leg_inherit -->
<g id="edge24" class="edge">
<title>leg_title&#45;&gt;leg_inherit</title>
<path fill="none" stroke="#0000aa" stroke-width="1.5" d="M423.11,-272C425.09,-272 427.06,-272 429.04,-272"/>
<polygon fill="#0000aa" stroke="#0000aa" stroke-width="1.5" points="428.9,-275.5 438.9,-272 428.9,-268.5 428.9,-275.5"/>
</g>
<!-- leg_usage -->
<g id="node14" class="node">
<title>leg_usage</title>
<text xml:space="preserve" text-anchor="middle" x="583.6" y="-268.32" font-family="Arial" font-size="9.00">Usage</text>
</g>
<!-- leg_title&#45;&gt;leg_usage -->
<g id="edge25" class="edge">
<title>leg_title&#45;&gt;leg_usage</title>
<path fill="none" stroke="#006600" stroke-dasharray="5,2" d="M376.24,-289.95C390.83,-306.29 414.86,-329.28 441.6,-339 478.36,-352.36 494.31,-355.88 529.6,-339 546.79,-330.78 560.25,-314.11 569.44,-299.46"/>
<polygon fill="#006600" stroke="#006600" points="572.32,-301.47 574.34,-291.08 566.27,-297.94 572.32,-301.47"/>
</g>
<!-- leg_utility -->
<g id="node15" class="node">
<title>leg_utility</title>
<text xml:space="preserve" text-anchor="middle" x="687.6" y="-268.32" font-family="Arial" font-size="9.00">Utility Support</text>
</g>
<!-- leg_title&#45;&gt;leg_utility -->
<g id="edge26" class="edge">
<title>leg_title&#45;&gt;leg_utility</title>
<path fill="none" stroke="#990000" stroke-dasharray="1,5" d="M376.24,-289.95C390.83,-306.29 414.86,-329.28 441.6,-339 478.56,-352.44 582.15,-353.78 618.6,-339 638.71,-330.84 656.19,-313.69 668.53,-298.78"/>
<polygon fill="#990000" stroke="#990000" points="671.15,-301.1 674.58,-291.08 665.65,-296.78 671.15,-301.1"/>
</g>
<!-- leg_boundary -->
<g id="node16" class="node">
<title>leg_boundary</title>
<text xml:space="preserve" text-anchor="middle" x="823.6" y="-268.32" font-family="Arial" font-size="9.00">Boundary Modification</text>
</g>
<!-- leg_title&#45;&gt;leg_boundary -->
<g id="edge27" class="edge">
<title>leg_title&#45;&gt;leg_boundary</title>
<path fill="none" stroke="#aa6600" stroke-dasharray="5,2" d="M376.24,-289.95C390.83,-306.29 414.86,-329.28 441.6,-339 503.42,-361.47 675.39,-360.37 737.6,-339 761.31,-330.85 783.51,-313.2 799.41,-298.06"/>
<polygon fill="#aa6600" stroke="#aa6600" points="801.85,-300.57 806.49,-291.04 796.92,-295.59 801.85,-300.57"/>
</g>
</g>
</svg>
